<mxfile host="Electron" modified="2025-04-09T21:50:01.812Z" agent="Mozilla/5.0 (Macintosh; Intel Mac OS X 10_15_7) AppleWebKit/537.36 (KHTML, like Gecko) draw.io/24.6.4 Chrome/124.0.6367.207 Electron/30.0.6 Safari/537.36" etag="Xk7EtEUvWCwkl-lX0xBb" version="24.6.4" type="device">
  <diagram name="Page-1" id="-H_mtQnk-PTXWXPvYvuk">
    <mxGraphModel dx="3352" dy="1334" grid="1" gridSize="10" guides="1" tooltips="1" connect="1" arrows="1" fold="1" page="1" pageScale="1" pageWidth="1169" pageHeight="827" math="0" shadow="0">
      <root>
        <mxCell id="0" />
        <mxCell id="1" parent="0" />
        <mxCell id="d55q2q6ICzrKAKXx2cwE-44" style="edgeStyle=orthogonalEdgeStyle;rounded=0;orthogonalLoop=1;jettySize=auto;html=1;entryX=0.5;entryY=0;entryDx=0;entryDy=0;" edge="1" parent="1" source="d55q2q6ICzrKAKXx2cwE-38" target="d55q2q6ICzrKAKXx2cwE-29">
          <mxGeometry relative="1" as="geometry" />
        </mxCell>
        <mxCell id="d55q2q6ICzrKAKXx2cwE-38" value="" style="rounded=0;whiteSpace=wrap;html=1;" vertex="1" parent="1">
          <mxGeometry x="-480" y="180" width="140" height="280" as="geometry" />
        </mxCell>
        <mxCell id="d55q2q6ICzrKAKXx2cwE-18" value="" style="rounded=0;whiteSpace=wrap;html=1;" vertex="1" parent="1">
          <mxGeometry x="40" y="131" width="310" height="359" as="geometry" />
        </mxCell>
        <mxCell id="d55q2q6ICzrKAKXx2cwE-1" value="" style="rounded=0;whiteSpace=wrap;html=1;" vertex="1" parent="1">
          <mxGeometry x="50" y="170" width="290" height="150" as="geometry" />
        </mxCell>
        <mxCell id="d55q2q6ICzrKAKXx2cwE-2" value="&lt;font style=&quot;font-size: 11px;&quot;&gt;shard1_repl1&lt;/font&gt;" style="shape=cylinder3;whiteSpace=wrap;html=1;boundedLbl=1;backgroundOutline=1;size=15;" vertex="1" parent="1">
          <mxGeometry x="80" y="210" width="70" height="80" as="geometry" />
        </mxCell>
        <mxCell id="d55q2q6ICzrKAKXx2cwE-3" value="&lt;font style=&quot;font-size: 11px;&quot;&gt;shard1_repl2&lt;/font&gt;" style="shape=cylinder3;whiteSpace=wrap;html=1;boundedLbl=1;backgroundOutline=1;size=15;" vertex="1" parent="1">
          <mxGeometry x="165" y="210" width="70" height="80" as="geometry" />
        </mxCell>
        <mxCell id="d55q2q6ICzrKAKXx2cwE-4" value="&lt;font style=&quot;font-size: 11px;&quot;&gt;shard1_repl3&lt;/font&gt;" style="shape=cylinder3;whiteSpace=wrap;html=1;boundedLbl=1;backgroundOutline=1;size=15;" vertex="1" parent="1">
          <mxGeometry x="250" y="210" width="70" height="80" as="geometry" />
        </mxCell>
        <mxCell id="d55q2q6ICzrKAKXx2cwE-5" value="Shard-1" style="text;html=1;align=center;verticalAlign=middle;whiteSpace=wrap;rounded=0;" vertex="1" parent="1">
          <mxGeometry x="170" y="170" width="60" height="30" as="geometry" />
        </mxCell>
        <mxCell id="d55q2q6ICzrKAKXx2cwE-7" value="" style="rounded=0;whiteSpace=wrap;html=1;" vertex="1" parent="1">
          <mxGeometry x="50" y="330" width="290" height="150" as="geometry" />
        </mxCell>
        <mxCell id="d55q2q6ICzrKAKXx2cwE-8" value="&lt;font style=&quot;font-size: 11px;&quot;&gt;shard2_repl1&lt;/font&gt;" style="shape=cylinder3;whiteSpace=wrap;html=1;boundedLbl=1;backgroundOutline=1;size=15;" vertex="1" parent="1">
          <mxGeometry x="80" y="373" width="70" height="80" as="geometry" />
        </mxCell>
        <mxCell id="d55q2q6ICzrKAKXx2cwE-9" value="&lt;font style=&quot;font-size: 11px;&quot;&gt;shard2_repl2&lt;/font&gt;" style="shape=cylinder3;whiteSpace=wrap;html=1;boundedLbl=1;backgroundOutline=1;size=15;" vertex="1" parent="1">
          <mxGeometry x="165" y="372" width="70" height="80" as="geometry" />
        </mxCell>
        <mxCell id="d55q2q6ICzrKAKXx2cwE-10" value="&lt;font style=&quot;font-size: 11px;&quot;&gt;shard2_repl3&lt;/font&gt;" style="shape=cylinder3;whiteSpace=wrap;html=1;boundedLbl=1;backgroundOutline=1;size=15;" vertex="1" parent="1">
          <mxGeometry x="250" y="372" width="70" height="80" as="geometry" />
        </mxCell>
        <mxCell id="d55q2q6ICzrKAKXx2cwE-11" value="Shard-2" style="text;html=1;align=center;verticalAlign=middle;whiteSpace=wrap;rounded=0;" vertex="1" parent="1">
          <mxGeometry x="170" y="330" width="60" height="30" as="geometry" />
        </mxCell>
        <mxCell id="d55q2q6ICzrKAKXx2cwE-23" value="" style="edgeStyle=orthogonalEdgeStyle;rounded=0;orthogonalLoop=1;jettySize=auto;html=1;" edge="1" parent="1" source="d55q2q6ICzrKAKXx2cwE-14" target="d55q2q6ICzrKAKXx2cwE-19">
          <mxGeometry relative="1" as="geometry" />
        </mxCell>
        <mxCell id="d55q2q6ICzrKAKXx2cwE-25" style="edgeStyle=orthogonalEdgeStyle;rounded=0;orthogonalLoop=1;jettySize=auto;html=1;" edge="1" parent="1" source="d55q2q6ICzrKAKXx2cwE-14" target="d55q2q6ICzrKAKXx2cwE-7">
          <mxGeometry relative="1" as="geometry" />
        </mxCell>
        <mxCell id="d55q2q6ICzrKAKXx2cwE-14" value="Mongos Router" style="rounded=0;whiteSpace=wrap;html=1;" vertex="1" parent="1">
          <mxGeometry x="-200" y="288" width="120" height="60" as="geometry" />
        </mxCell>
        <mxCell id="d55q2q6ICzrKAKXx2cwE-19" value="ConfigSrv" style="rounded=0;whiteSpace=wrap;html=1;" vertex="1" parent="1">
          <mxGeometry x="-200" y="168" width="120" height="60" as="geometry" />
        </mxCell>
        <mxCell id="d55q2q6ICzrKAKXx2cwE-21" value="MongoDB" style="text;html=1;align=center;verticalAlign=middle;whiteSpace=wrap;rounded=0;" vertex="1" parent="1">
          <mxGeometry x="40" y="130" width="90" height="30" as="geometry" />
        </mxCell>
        <mxCell id="d55q2q6ICzrKAKXx2cwE-22" style="edgeStyle=orthogonalEdgeStyle;rounded=0;orthogonalLoop=1;jettySize=auto;html=1;" edge="1" parent="1" source="d55q2q6ICzrKAKXx2cwE-14" target="d55q2q6ICzrKAKXx2cwE-1">
          <mxGeometry relative="1" as="geometry" />
        </mxCell>
        <mxCell id="d55q2q6ICzrKAKXx2cwE-24" value="" style="endArrow=classic;html=1;rounded=0;exitX=-0.004;exitY=0.185;exitDx=0;exitDy=0;exitPerimeter=0;entryX=1;entryY=0.5;entryDx=0;entryDy=0;" edge="1" parent="1" source="d55q2q6ICzrKAKXx2cwE-18" target="d55q2q6ICzrKAKXx2cwE-19">
          <mxGeometry width="50" height="50" relative="1" as="geometry">
            <mxPoint x="140" y="248" as="sourcePoint" />
            <mxPoint x="190" y="198" as="targetPoint" />
          </mxGeometry>
        </mxCell>
        <mxCell id="d55q2q6ICzrKAKXx2cwE-32" value="" style="edgeStyle=orthogonalEdgeStyle;rounded=0;orthogonalLoop=1;jettySize=auto;html=1;" edge="1" parent="1" source="d55q2q6ICzrKAKXx2cwE-26" target="d55q2q6ICzrKAKXx2cwE-31">
          <mxGeometry relative="1" as="geometry" />
        </mxCell>
        <mxCell id="d55q2q6ICzrKAKXx2cwE-26" value="API Gateway" style="rounded=1;whiteSpace=wrap;html=1;" vertex="1" parent="1">
          <mxGeometry x="-960" y="290" width="120" height="60" as="geometry" />
        </mxCell>
        <mxCell id="d55q2q6ICzrKAKXx2cwE-28" value="Cache" style="shape=cylinder3;whiteSpace=wrap;html=1;boundedLbl=1;backgroundOutline=1;size=15;" vertex="1" parent="1">
          <mxGeometry x="-300" y="360" width="70" height="80" as="geometry" />
        </mxCell>
        <mxCell id="d55q2q6ICzrKAKXx2cwE-29" value="Redis" style="text;html=1;align=center;verticalAlign=middle;whiteSpace=wrap;rounded=0;" vertex="1" parent="1">
          <mxGeometry x="-310" y="360" width="90" height="30" as="geometry" />
        </mxCell>
        <mxCell id="d55q2q6ICzrKAKXx2cwE-34" style="edgeStyle=orthogonalEdgeStyle;rounded=0;orthogonalLoop=1;jettySize=auto;html=1;" edge="1" parent="1" source="d55q2q6ICzrKAKXx2cwE-31" target="d55q2q6ICzrKAKXx2cwE-33">
          <mxGeometry relative="1" as="geometry" />
        </mxCell>
        <mxCell id="d55q2q6ICzrKAKXx2cwE-31" value="consul_kv" style="rounded=1;whiteSpace=wrap;html=1;" vertex="1" parent="1">
          <mxGeometry x="-800" y="290" width="120" height="60" as="geometry" />
        </mxCell>
        <mxCell id="d55q2q6ICzrKAKXx2cwE-39" style="edgeStyle=orthogonalEdgeStyle;rounded=0;orthogonalLoop=1;jettySize=auto;html=1;entryX=0;entryY=0.5;entryDx=0;entryDy=0;" edge="1" parent="1" source="d55q2q6ICzrKAKXx2cwE-33" target="d55q2q6ICzrKAKXx2cwE-38">
          <mxGeometry relative="1" as="geometry" />
        </mxCell>
        <mxCell id="d55q2q6ICzrKAKXx2cwE-33" value="Consul" style="rounded=1;whiteSpace=wrap;html=1;" vertex="1" parent="1">
          <mxGeometry x="-640" y="290" width="120" height="60" as="geometry" />
        </mxCell>
        <mxCell id="d55q2q6ICzrKAKXx2cwE-35" value="pymongo-api" style="rounded=1;whiteSpace=wrap;html=1;" vertex="1" parent="1">
          <mxGeometry x="-470" y="212" width="120" height="60" as="geometry" />
        </mxCell>
        <mxCell id="d55q2q6ICzrKAKXx2cwE-36" value="pymongo-api" style="rounded=1;whiteSpace=wrap;html=1;" vertex="1" parent="1">
          <mxGeometry x="-470" y="300" width="120" height="60" as="geometry" />
        </mxCell>
        <mxCell id="d55q2q6ICzrKAKXx2cwE-37" value="pymongo-api" style="rounded=1;whiteSpace=wrap;html=1;" vertex="1" parent="1">
          <mxGeometry x="-470" y="387" width="120" height="60" as="geometry" />
        </mxCell>
        <mxCell id="d55q2q6ICzrKAKXx2cwE-40" value="API instances" style="text;html=1;align=center;verticalAlign=middle;whiteSpace=wrap;rounded=0;" vertex="1" parent="1">
          <mxGeometry x="-472.5" y="180" width="125" height="30" as="geometry" />
        </mxCell>
        <mxCell id="d55q2q6ICzrKAKXx2cwE-41" value="" style="endArrow=classic;html=1;rounded=0;exitX=1;exitY=0.5;exitDx=0;exitDy=0;entryX=-0.004;entryY=0.535;entryDx=0;entryDy=0;entryPerimeter=0;" edge="1" parent="1" source="d55q2q6ICzrKAKXx2cwE-38" target="d55q2q6ICzrKAKXx2cwE-14">
          <mxGeometry width="50" height="50" relative="1" as="geometry">
            <mxPoint x="-160" y="390" as="sourcePoint" />
            <mxPoint x="-110" y="340" as="targetPoint" />
          </mxGeometry>
        </mxCell>
        <mxCell id="d55q2q6ICzrKAKXx2cwE-47" style="edgeStyle=orthogonalEdgeStyle;rounded=0;orthogonalLoop=1;jettySize=auto;html=1;entryX=0;entryY=0.5;entryDx=0;entryDy=0;" edge="1" parent="1" source="d55q2q6ICzrKAKXx2cwE-46" target="d55q2q6ICzrKAKXx2cwE-26">
          <mxGeometry relative="1" as="geometry" />
        </mxCell>
        <mxCell id="d55q2q6ICzrKAKXx2cwE-50" value="" style="edgeStyle=orthogonalEdgeStyle;rounded=0;orthogonalLoop=1;jettySize=auto;html=1;" edge="1" parent="1" source="d55q2q6ICzrKAKXx2cwE-46" target="d55q2q6ICzrKAKXx2cwE-48">
          <mxGeometry relative="1" as="geometry" />
        </mxCell>
        <mxCell id="d55q2q6ICzrKAKXx2cwE-46" value="Frontend" style="rounded=1;whiteSpace=wrap;html=1;" vertex="1" parent="1">
          <mxGeometry x="-1160" y="290" width="120" height="60" as="geometry" />
        </mxCell>
        <mxCell id="d55q2q6ICzrKAKXx2cwE-48" value="CDN" style="ellipse;shape=cloud;whiteSpace=wrap;html=1;" vertex="1" parent="1">
          <mxGeometry x="-1160" y="140" width="120" height="80" as="geometry" />
        </mxCell>
        <mxCell id="d55q2q6ICzrKAKXx2cwE-51" value="CDN RU" style="ellipse;shape=cloud;whiteSpace=wrap;html=1;" vertex="1" parent="1">
          <mxGeometry x="-1160" y="10" width="120" height="80" as="geometry" />
        </mxCell>
        <mxCell id="d55q2q6ICzrKAKXx2cwE-52" value="CDN BY" style="ellipse;shape=cloud;whiteSpace=wrap;html=1;" vertex="1" parent="1">
          <mxGeometry x="-1020" y="10" width="120" height="80" as="geometry" />
        </mxCell>
        <mxCell id="d55q2q6ICzrKAKXx2cwE-53" value="CDN KZ" style="ellipse;shape=cloud;whiteSpace=wrap;html=1;" vertex="1" parent="1">
          <mxGeometry x="-880" y="10" width="120" height="80" as="geometry" />
        </mxCell>
        <mxCell id="d55q2q6ICzrKAKXx2cwE-54" style="edgeStyle=orthogonalEdgeStyle;rounded=0;orthogonalLoop=1;jettySize=auto;html=1;entryX=0.5;entryY=1;entryDx=0;entryDy=0;entryPerimeter=0;" edge="1" parent="1" source="d55q2q6ICzrKAKXx2cwE-48" target="d55q2q6ICzrKAKXx2cwE-51">
          <mxGeometry relative="1" as="geometry" />
        </mxCell>
        <mxCell id="d55q2q6ICzrKAKXx2cwE-55" style="edgeStyle=orthogonalEdgeStyle;rounded=0;orthogonalLoop=1;jettySize=auto;html=1;entryX=0.55;entryY=0.95;entryDx=0;entryDy=0;entryPerimeter=0;" edge="1" parent="1" source="d55q2q6ICzrKAKXx2cwE-48" target="d55q2q6ICzrKAKXx2cwE-52">
          <mxGeometry relative="1" as="geometry" />
        </mxCell>
        <mxCell id="d55q2q6ICzrKAKXx2cwE-56" style="edgeStyle=orthogonalEdgeStyle;rounded=0;orthogonalLoop=1;jettySize=auto;html=1;entryX=0.55;entryY=0.95;entryDx=0;entryDy=0;entryPerimeter=0;" edge="1" parent="1" source="d55q2q6ICzrKAKXx2cwE-48" target="d55q2q6ICzrKAKXx2cwE-53">
          <mxGeometry relative="1" as="geometry" />
        </mxCell>
      </root>
    </mxGraphModel>
  </diagram>
</mxfile>
